<svg xmlns="http://www.w3.org/2000/svg" xmlns:xlink="http://www.w3.org/1999/xlink" width="500" zoomAndPan="magnify" viewBox="0 0 375 374.999991" height="500" preserveAspectRatio="xMidYMid meet" version="1.0"><defs><g/></defs><rect x="-37.5" width="450" fill="#ffffff" y="-37.499999" height="449.999989" fill-opacity="1"/><rect x="-37.5" width="450" fill="#ffffff" y="-37.499999" height="449.999989" fill-opacity="1"/><path fill="#39b54a" d="M 174.929688 182.8125 C 171.890625 175.851562 167.378906 162.296875 171.8125 147.824219 C 179.085938 124.082031 207.621094 107.054688 241.964844 109.261719 C 246.523438 138.230469 235.285156 165.367188 214.109375 177.472656 C 199.847656 185.628906 185.070312 184.679688 178.070312 183.707031 C 185.238281 178.300781 193.28125 171.351562 201.320312 162.558594 C 213.730469 148.984375 222.015625 135.511719 227.496094 124.761719 C 219.621094 135.703125 210.15625 147.519531 198.847656 159.59375 C 190.6875 168.304688 182.628906 176.015625 174.929688 182.8125 Z M 174.929688 182.8125 " fill-opacity="1" fill-rule="nonzero"/><path fill="#39b54a" d="M 165.773438 183.570312 C 160.414062 185.183594 150.101562 187.304688 139.875 182.851562 C 123.097656 175.546875 113.054688 153.371094 117.597656 128.617188 C 139.210938 127.773438 158.132812 138.246094 165.199219 154.65625 C 169.960938 165.710938 168.003906 176.363281 166.695312 181.363281 C 163.34375 175.699219 158.941406 169.265625 153.179688 162.675781 C 144.292969 152.507812 135.132812 145.339844 127.722656 140.445312 C 135.066406 147.097656 142.917969 154.976562 150.800781 164.21875 C 156.488281 170.890625 161.449219 177.398438 165.773438 183.570312 Z M 165.773438 183.570312 " fill-opacity="1" fill-rule="nonzero"/><g fill="#3d3d3d" fill-opacity="1"><g transform="translate(83.92956, 225.56731)"><g><path d="M 3.65625 0 L 15.03125 0 L 15.03125 -19.953125 L 34.375 -19.953125 L 34.375 0 L 45.734375 0 L 45.734375 -47.34375 L 34.375 -47.34375 L 34.375 -29.046875 L 15.03125 -29.046875 L 15.03125 -47.34375 L 3.65625 -47.34375 Z M 3.65625 0 "/></g></g></g><g fill="#3d3d3d" fill-opacity="1"><g transform="translate(131.853209, 225.56731)"><g><path d="M 13.15625 1 C 18.875 1 23.34375 -1.796875 25.53125 -5.84375 L 25.59375 -5.84375 L 25.734375 -4.65625 C 26.1875 -1.53125 29.390625 1 33.515625 1 C 36.640625 1 40.15625 -0.0625 42.21875 -2.125 L 39.828125 -7.515625 C 39.09375 -6.578125 38.03125 -5.984375 37.171875 -5.984375 C 36.09375 -5.984375 35.4375 -6.921875 35.4375 -8.4375 L 35.4375 -21.609375 C 35.4375 -30.125 28.984375 -35.375 19.015625 -35.375 C 9.234375 -35.375 2.65625 -30.25 2.0625 -23.203125 L 11.96875 -21.671875 C 12.296875 -25.0625 15.15625 -27.984375 19.28125 -27.984375 C 22.9375 -27.984375 25.46875 -26.0625 25.46875 -23.140625 C 25.46875 -21.734375 24.40625 -20.8125 22.796875 -20.671875 L 16.21875 -19.875 C 6.046875 -18.8125 1 -14.5625 1 -8.703125 C 1 -2.859375 6.046875 1 13.15625 1 Z M 17.015625 -5.984375 C 13.625 -5.984375 11.171875 -7.578125 11.171875 -9.90625 C 11.171875 -12.09375 13.09375 -13.890625 18.75 -14.5625 L 25.265625 -15.296875 L 25.265625 -13.890625 C 25.265625 -9.3125 21.8125 -5.984375 17.015625 -5.984375 Z M 17.015625 -5.984375 "/></g></g></g><g fill="#3d3d3d" fill-opacity="1"><g transform="translate(172.598227, 225.56731)"><g><path d="M 2.65625 13.96875 L 12.828125 13.96875 L 12.828125 -6.515625 L 12.890625 -6.515625 C 15.296875 -1.59375 19.40625 1 24.671875 1 C 33.578125 1 39.828125 -6.25 39.828125 -17.015625 C 39.828125 -27.859375 33.578125 -35.03125 24.671875 -35.03125 C 19.28125 -35.03125 15.15625 -32.4375 12.765625 -27.53125 L 12.703125 -27.53125 L 11.171875 -34.046875 L 2.65625 -34.046875 Z M 21.015625 -7.640625 C 16.015625 -7.640625 12.4375 -11.703125 12.4375 -17.015625 C 12.4375 -22.40625 16.015625 -26.453125 21.015625 -26.453125 C 26.0625 -26.453125 29.65625 -22.46875 29.65625 -17.015625 C 29.65625 -11.703125 26.0625 -7.640625 21.015625 -7.640625 Z M 21.015625 -7.640625 "/></g></g></g><g fill="#3d3d3d" fill-opacity="1"><g transform="translate(212.479162, 225.56731)"><g><path d="M 2.65625 13.96875 L 12.828125 13.96875 L 12.828125 -6.515625 L 12.890625 -6.515625 C 15.296875 -1.59375 19.40625 1 24.671875 1 C 33.578125 1 39.828125 -6.25 39.828125 -17.015625 C 39.828125 -27.859375 33.578125 -35.03125 24.671875 -35.03125 C 19.28125 -35.03125 15.15625 -32.4375 12.765625 -27.53125 L 12.703125 -27.53125 L 11.171875 -34.046875 L 2.65625 -34.046875 Z M 21.015625 -7.640625 C 16.015625 -7.640625 12.4375 -11.703125 12.4375 -17.015625 C 12.4375 -22.40625 16.015625 -26.453125 21.015625 -26.453125 C 26.0625 -26.453125 29.65625 -22.46875 29.65625 -17.015625 C 29.65625 -11.703125 26.0625 -7.640625 21.015625 -7.640625 Z M 21.015625 -7.640625 "/></g></g></g><g fill="#3d3d3d" fill-opacity="1"><g transform="translate(252.360097, 225.56731)"><g><path d="M 16.09375 15.296875 C 28.125 15.296875 36.03125 8.515625 36.03125 -2.328125 L 36.03125 -34.046875 L 25.859375 -34.046875 L 25.859375 -14.421875 C 25.859375 -9.96875 22.734375 -6.921875 18.75 -6.921875 C 14.953125 -6.921875 12.703125 -9.765625 12.703125 -13.890625 L 12.703125 -34.046875 L 2.59375 -34.046875 L 2.59375 -12.09375 C 2.59375 -3.984375 7.3125 1.328125 14.890625 1.328125 C 19.546875 1.328125 23.734375 -1.265625 25.859375 -5.578125 L 25.921875 -5.578125 L 25.921875 -2.65625 C 25.921875 3.1875 21.734375 6.84375 15.21875 6.84375 C 10.3125 6.84375 5.65625 4.78125 2.859375 1.65625 L -0.859375 9.046875 C 2.53125 12.828125 8.90625 15.296875 16.09375 15.296875 Z M 16.09375 15.296875 "/></g></g></g><g fill="#3d3d3d" fill-opacity="1"><g transform="translate(247.661809, 251.822093)"><g><path d="M 0.625 0 L 2.59375 0 L 2.59375 -3.078125 L 5.546875 -3.078125 L 5.546875 -4.578125 L 2.59375 -4.578125 L 2.59375 -6.515625 L 6.234375 -6.515625 L 6.234375 -8.1875 L 0.625 -8.1875 Z M 0.625 0 "/></g></g></g><g fill="#3d3d3d" fill-opacity="1"><g transform="translate(257.205359, 251.822093)"><g><path d="M 0.0625 0 L 2.109375 0 L 2.640625 -1.609375 L 5.796875 -1.609375 L 6.328125 0 L 8.390625 0 L 5.421875 -8.1875 L 3.03125 -8.1875 Z M 3 -3 L 4.203125 -6.640625 L 4.234375 -6.640625 L 5.4375 -3 Z M 3 -3 "/></g></g></g><g fill="#3d3d3d" fill-opacity="1"><g transform="translate(268.749232, 251.822093)"><g><path d="M 6.75 0.203125 C 7.40625 0.203125 8.015625 -0.0625 8.421875 -0.453125 L 8 -1.390625 C 7.859375 -1.203125 7.640625 -1.0625 7.421875 -1.0625 C 7.1875 -1.0625 7.03125 -1.25 6.96875 -1.5 L 6.703125 -2.46875 C 6.5625 -2.9375 6.34375 -3.25 5.90625 -3.421875 L 5.90625 -3.4375 C 7.125 -3.734375 7.859375 -4.578125 7.859375 -5.65625 C 7.859375 -7.21875 6.640625 -8.1875 4.703125 -8.1875 L 0.625 -8.1875 L 0.625 0 L 2.59375 0 L 2.59375 -3.09375 L 3.859375 -3.09375 C 4.328125 -3.09375 4.65625 -2.71875 4.796875 -2.25 L 5.15625 -1.046875 C 5.375 -0.28125 5.9375 0.203125 6.75 0.203125 Z M 2.59375 -4.4375 L 2.59375 -6.734375 L 4.453125 -6.734375 C 5.328125 -6.734375 5.890625 -6.28125 5.890625 -5.59375 C 5.890625 -4.890625 5.328125 -4.4375 4.453125 -4.4375 Z M 2.59375 -4.4375 "/></g></g></g><g fill="#3d3d3d" fill-opacity="1"><g transform="translate(280.327599, 251.822093)"><g><path d="M 0.625 0 L 2.421875 0 L 2.421875 -5.734375 L 2.453125 -5.734375 L 4.796875 0 L 6.390625 0 L 8.734375 -5.75 L 8.75 -5.75 L 8.75 0 L 10.5625 0 L 10.5625 -8.1875 L 8.015625 -8.1875 L 5.609375 -2.203125 L 5.59375 -2.203125 L 3.203125 -8.1875 L 0.625 -8.1875 Z M 0.625 0 "/></g></g></g></svg>