<svg xmlns="http://www.w3.org/2000/svg" xmlns:xlink="http://www.w3.org/1999/xlink" width="256" zoomAndPan="magnify" viewBox="0 0 192 49.499998" height="66" preserveAspectRatio="xMidYMid meet" version="1.0"><defs><g/><clipPath id="d0d9e1283f"><path d="M 0.960938 0 L 191.039062 0 L 191.039062 49.003906 L 0.960938 49.003906 Z M 0.960938 0 " clip-rule="nonzero"/></clipPath><clipPath id="bbdb40ce31"><path d="M 86.269531 16 L 94 16 L 94 24.386719 L 86.269531 24.386719 Z M 86.269531 16 " clip-rule="nonzero"/></clipPath></defs><g clip-path="url(#d0d9e1283f)"><path fill="#ffffff" d="M 0.960938 0 L 191.039062 0 L 191.039062 49.003906 L 0.960938 49.003906 Z M 0.960938 0 " fill-opacity="1" fill-rule="nonzero"/><path fill="#ffffff" d="M 0.960938 0 L 191.039062 0 L 191.039062 49.003906 L 0.960938 49.003906 Z M 0.960938 0 " fill-opacity="1" fill-rule="nonzero"/></g><path fill="#39b54a" d="M 94.1875 23.800781 C 93.796875 22.902344 93.21875 21.144531 93.789062 19.269531 C 94.71875 16.195312 98.371094 13.992188 102.765625 14.277344 C 103.347656 18.027344 101.910156 21.542969 99.199219 23.109375 C 97.375 24.167969 95.484375 24.042969 94.589844 23.917969 C 95.503906 23.21875 96.535156 22.316406 97.5625 21.179688 C 99.152344 19.421875 100.210938 17.675781 100.914062 16.285156 C 99.90625 17.699219 98.695312 19.230469 97.246094 20.796875 C 96.203125 21.921875 95.171875 22.921875 94.1875 23.800781 Z M 94.1875 23.800781 " fill-opacity="1" fill-rule="nonzero"/><g clip-path="url(#bbdb40ce31)"><path fill="#39b54a" d="M 93.015625 23.898438 C 92.328125 24.109375 91.007812 24.382812 89.699219 23.808594 C 87.554688 22.863281 86.269531 19.988281 86.851562 16.78125 C 89.617188 16.675781 92.039062 18.03125 92.941406 20.15625 C 93.550781 21.585938 93.300781 22.96875 93.132812 23.613281 C 92.703125 22.882812 92.140625 22.046875 91.402344 21.195312 C 90.265625 19.878906 89.09375 18.949219 88.144531 18.316406 C 89.085938 19.175781 90.089844 20.199219 91.097656 21.394531 C 91.828125 22.257812 92.460938 23.101562 93.015625 23.898438 Z M 93.015625 23.898438 " fill-opacity="1" fill-rule="nonzero"/></g><g fill="#3d3d3d" fill-opacity="1"><g transform="translate(82.465408, 29.477136)"><g><path d="M 0.484375 0 L 1.96875 0 L 1.96875 -2.609375 L 4.484375 -2.609375 L 4.484375 0 L 5.984375 0 L 5.984375 -6.1875 L 4.484375 -6.1875 L 4.484375 -3.796875 L 1.96875 -3.796875 L 1.96875 -6.1875 L 0.484375 -6.1875 Z M 0.484375 0 "/></g></g></g><g fill="#3d3d3d" fill-opacity="1"><g transform="translate(88.72807, 29.477136)"><g><path d="M 1.71875 0.125 C 2.46875 0.125 3.046875 -0.234375 3.34375 -0.765625 L 3.359375 -0.609375 C 3.421875 -0.203125 3.84375 0.125 4.375 0.125 C 4.78125 0.125 5.25 -0.015625 5.515625 -0.28125 L 5.203125 -0.984375 C 5.109375 -0.859375 4.96875 -0.78125 4.859375 -0.78125 C 4.71875 -0.78125 4.625 -0.90625 4.625 -1.109375 L 4.625 -2.828125 C 4.625 -3.9375 3.78125 -4.625 2.484375 -4.625 C 1.203125 -4.625 0.34375 -3.953125 0.265625 -3.03125 L 1.5625 -2.828125 C 1.609375 -3.28125 1.984375 -3.65625 2.515625 -3.65625 C 3 -3.65625 3.328125 -3.40625 3.328125 -3.015625 C 3.328125 -2.84375 3.1875 -2.71875 2.984375 -2.703125 L 2.125 -2.59375 C 0.796875 -2.453125 0.125 -1.90625 0.125 -1.140625 C 0.125 -0.375 0.796875 0.125 1.71875 0.125 Z M 2.21875 -0.78125 C 1.78125 -0.78125 1.453125 -0.984375 1.453125 -1.296875 C 1.453125 -1.578125 1.71875 -1.8125 2.453125 -1.90625 L 3.296875 -2 L 3.296875 -1.8125 C 3.296875 -1.21875 2.84375 -0.78125 2.21875 -0.78125 Z M 2.21875 -0.78125 "/></g></g></g><g fill="#3d3d3d" fill-opacity="1"><g transform="translate(94.052629, 29.477136)"><g><path d="M 0.34375 1.828125 L 1.671875 1.828125 L 1.671875 -0.84375 L 1.6875 -0.84375 C 2 -0.203125 2.53125 0.125 3.21875 0.125 C 4.390625 0.125 5.203125 -0.8125 5.203125 -2.21875 C 5.203125 -3.640625 4.390625 -4.578125 3.21875 -4.578125 C 2.515625 -4.578125 1.984375 -4.234375 1.671875 -3.59375 L 1.65625 -3.59375 L 1.453125 -4.453125 L 0.34375 -4.453125 Z M 2.75 -1 C 2.09375 -1 1.625 -1.53125 1.625 -2.21875 C 1.625 -2.921875 2.09375 -3.453125 2.75 -3.453125 C 3.40625 -3.453125 3.875 -2.9375 3.875 -2.21875 C 3.875 -1.53125 3.40625 -1 2.75 -1 Z M 2.75 -1 "/></g></g></g><g fill="#3d3d3d" fill-opacity="1"><g transform="translate(99.26427, 29.477136)"><g><path d="M 0.34375 1.828125 L 1.671875 1.828125 L 1.671875 -0.84375 L 1.6875 -0.84375 C 2 -0.203125 2.53125 0.125 3.21875 0.125 C 4.390625 0.125 5.203125 -0.8125 5.203125 -2.21875 C 5.203125 -3.640625 4.390625 -4.578125 3.21875 -4.578125 C 2.515625 -4.578125 1.984375 -4.234375 1.671875 -3.59375 L 1.65625 -3.59375 L 1.453125 -4.453125 L 0.34375 -4.453125 Z M 2.75 -1 C 2.09375 -1 1.625 -1.53125 1.625 -2.21875 C 1.625 -2.921875 2.09375 -3.453125 2.75 -3.453125 C 3.40625 -3.453125 3.875 -2.9375 3.875 -2.21875 C 3.875 -1.53125 3.40625 -1 2.75 -1 Z M 2.75 -1 "/></g></g></g><g fill="#3d3d3d" fill-opacity="1"><g transform="translate(104.47591, 29.477136)"><g><path d="M 2.109375 2 C 3.671875 2 4.703125 1.109375 4.703125 -0.296875 L 4.703125 -4.453125 L 3.375 -4.453125 L 3.375 -1.890625 C 3.375 -1.296875 2.96875 -0.90625 2.453125 -0.90625 C 1.953125 -0.90625 1.65625 -1.28125 1.65625 -1.8125 L 1.65625 -4.453125 L 0.34375 -4.453125 L 0.34375 -1.578125 C 0.34375 -0.515625 0.953125 0.171875 1.953125 0.171875 C 2.546875 0.171875 3.09375 -0.171875 3.375 -0.734375 L 3.390625 -0.734375 L 3.390625 -0.34375 C 3.390625 0.421875 2.84375 0.890625 1.984375 0.890625 C 1.34375 0.890625 0.734375 0.625 0.375 0.21875 L -0.109375 1.1875 C 0.328125 1.671875 1.171875 2 2.109375 2 Z M 2.109375 2 "/></g></g></g><g fill="#3d3d3d" fill-opacity="1"><g transform="translate(103.861938, 32.90811)"><g><path d="M 0.078125 0 L 0.34375 0 L 0.34375 -0.40625 L 0.71875 -0.40625 L 0.71875 -0.59375 L 0.34375 -0.59375 L 0.34375 -0.84375 L 0.8125 -0.84375 L 0.8125 -1.0625 L 0.078125 -1.0625 Z M 0.078125 0 "/></g></g></g><g fill="#3d3d3d" fill-opacity="1"><g transform="translate(105.109089, 32.90811)"><g><path d="M 0 0 L 0.28125 0 L 0.34375 -0.203125 L 0.75 -0.203125 L 0.828125 0 L 1.09375 0 L 0.703125 -1.0625 L 0.390625 -1.0625 Z M 0.390625 -0.390625 L 0.546875 -0.859375 L 0.703125 -0.390625 Z M 0.390625 -0.390625 "/></g></g></g><g fill="#3d3d3d" fill-opacity="1"><g transform="translate(106.617642, 32.90811)"><g><path d="M 0.875 0.03125 C 0.96875 0.03125 1.046875 0 1.09375 -0.0625 L 1.046875 -0.1875 C 1.03125 -0.15625 1 -0.140625 0.96875 -0.140625 C 0.9375 -0.140625 0.921875 -0.15625 0.90625 -0.1875 L 0.875 -0.328125 C 0.859375 -0.375 0.828125 -0.421875 0.765625 -0.453125 C 0.9375 -0.484375 1.03125 -0.59375 1.03125 -0.734375 C 1.03125 -0.9375 0.859375 -1.0625 0.609375 -1.0625 L 0.078125 -1.0625 L 0.078125 0 L 0.34375 0 L 0.34375 -0.40625 L 0.5 -0.40625 C 0.5625 -0.40625 0.609375 -0.359375 0.625 -0.296875 L 0.671875 -0.140625 C 0.703125 -0.03125 0.78125 0.03125 0.875 0.03125 Z M 0.34375 -0.578125 L 0.34375 -0.875 L 0.578125 -0.875 C 0.6875 -0.875 0.765625 -0.8125 0.765625 -0.734375 C 0.765625 -0.640625 0.6875 -0.578125 0.578125 -0.578125 Z M 0.34375 -0.578125 "/></g></g></g><g fill="#3d3d3d" fill-opacity="1"><g transform="translate(108.130703, 32.90811)"><g><path d="M 0.078125 0 L 0.3125 0 L 0.3125 -0.75 L 0.625 0 L 0.828125 0 L 1.140625 -0.75 L 1.140625 0 L 1.375 0 L 1.375 -1.0625 L 1.046875 -1.0625 L 0.734375 -0.28125 L 0.421875 -1.0625 L 0.078125 -1.0625 Z M 0.078125 0 "/></g></g></g></svg>