<svg xmlns="http://www.w3.org/2000/svg" xmlns:xlink="http://www.w3.org/1999/xlink" width="256"
    zoomAndPan="magnify" viewBox="0 0 192 49.499998" height="66" preserveAspectRatio="xMidYMid meet"
    version="1.0">
    <defs>
        <g />
    </defs>
    <path fill="#39b54a"
        d="M 90.734375 25.226562 C 89.875 23.230469 88.59375 19.339844 89.851562 15.191406 C 91.914062 8.378906 100.007812 3.496094 109.75 4.128906 C 111.042969 12.4375 107.855469 20.222656 101.847656 23.695312 C 97.804688 26.035156 93.613281 25.761719 91.628906 25.480469 C 93.660156 23.929688 95.941406 21.9375 98.222656 19.414062 C 101.742188 15.523438 104.089844 11.660156 105.644531 8.574219 C 103.410156 11.714844 100.726562 15.101562 97.519531 18.566406 C 95.207031 21.0625 92.917969 23.277344 90.734375 25.226562 Z M 90.734375 25.226562 "
        fill-opacity="1" fill-rule="nonzero" />
    <path fill="#39b54a"
        d="M 88.140625 25.441406 C 86.621094 25.90625 83.695312 26.515625 80.792969 25.238281 C 76.035156 23.140625 73.1875 16.78125 74.476562 9.679688 C 80.605469 9.4375 85.972656 12.441406 87.976562 17.148438 C 89.328125 20.320312 88.773438 23.375 88.402344 24.808594 C 87.449219 23.183594 86.199219 21.339844 84.566406 19.449219 C 82.046875 16.53125 79.449219 14.476562 77.347656 13.074219 C 79.429688 14.980469 81.65625 17.242188 83.890625 19.894531 C 85.503906 21.804688 86.914062 23.671875 88.140625 25.441406 Z M 88.140625 25.441406 "
        fill-opacity="1" fill-rule="nonzero" />
    <g fill="#3d3d3d" fill-opacity="1">
        <g transform="translate(64.965832, 36.941209)">
            <g>
                <path
                    d="M 1.03125 0 L 4.234375 0 L 4.234375 -5.625 L 9.703125 -5.625 L 9.703125 0 L 12.90625 0 L 12.90625 -13.359375 L 9.703125 -13.359375 L 9.703125 -8.203125 L 4.234375 -8.203125 L 4.234375 -13.359375 L 1.03125 -13.359375 Z M 1.03125 0 " />
            </g>
        </g>
    </g>
    <g fill="#3d3d3d" fill-opacity="1">
        <g transform="translate(78.490094, 36.941209)">
            <g>
                <path
                    d="M 3.71875 0.28125 C 5.328125 0.28125 6.59375 -0.5 7.203125 -1.65625 L 7.21875 -1.65625 L 7.265625 -1.3125 C 7.390625 -0.4375 8.296875 0.28125 9.453125 0.28125 C 10.34375 0.28125 11.328125 -0.015625 11.921875 -0.59375 L 11.234375 -2.125 C 11.03125 -1.859375 10.734375 -1.6875 10.484375 -1.6875 C 10.1875 -1.6875 10 -1.953125 10 -2.390625 L 10 -6.09375 C 10 -8.5 8.1875 -9.984375 5.359375 -9.984375 C 2.609375 -9.984375 0.75 -8.53125 0.578125 -6.546875 L 3.375 -6.125 C 3.46875 -7.078125 4.28125 -7.90625 5.4375 -7.90625 C 6.46875 -7.90625 7.1875 -7.359375 7.1875 -6.53125 C 7.1875 -6.140625 6.890625 -5.875 6.4375 -5.84375 L 4.578125 -5.609375 C 1.703125 -5.3125 0.28125 -4.109375 0.28125 -2.453125 C 0.28125 -0.8125 1.703125 0.28125 3.71875 0.28125 Z M 4.796875 -1.6875 C 3.84375 -1.6875 3.15625 -2.140625 3.15625 -2.796875 C 3.15625 -3.421875 3.703125 -3.921875 5.296875 -4.109375 L 7.125 -4.3125 L 7.125 -3.921875 C 7.125 -2.625 6.15625 -1.6875 4.796875 -1.6875 Z M 4.796875 -1.6875 " />
            </g>
        </g>
    </g>
    <g fill="#3d3d3d" fill-opacity="1">
        <g transform="translate(89.988514, 36.941209)">
            <g>
                <path
                    d="M 0.75 3.9375 L 3.625 3.9375 L 3.625 -1.84375 L 3.640625 -1.84375 C 4.3125 -0.453125 5.484375 0.28125 6.96875 0.28125 C 9.484375 0.28125 11.234375 -1.765625 11.234375 -4.796875 C 11.234375 -7.859375 9.484375 -9.890625 6.96875 -9.890625 C 5.4375 -9.890625 4.28125 -9.15625 3.609375 -7.765625 L 3.578125 -7.765625 L 3.15625 -9.609375 L 0.75 -9.609375 Z M 5.9375 -2.15625 C 4.515625 -2.15625 3.515625 -3.296875 3.515625 -4.796875 C 3.515625 -6.328125 4.515625 -7.46875 5.9375 -7.46875 C 7.359375 -7.46875 8.375 -6.34375 8.375 -4.796875 C 8.375 -3.296875 7.359375 -2.15625 5.9375 -2.15625 Z M 5.9375 -2.15625 " />
            </g>
        </g>
    </g>
    <g fill="#3d3d3d" fill-opacity="1">
        <g transform="translate(101.243086, 36.941209)">
            <g>
                <path
                    d="M 0.75 3.9375 L 3.625 3.9375 L 3.625 -1.84375 L 3.640625 -1.84375 C 4.3125 -0.453125 5.484375 0.28125 6.96875 0.28125 C 9.484375 0.28125 11.234375 -1.765625 11.234375 -4.796875 C 11.234375 -7.859375 9.484375 -9.890625 6.96875 -9.890625 C 5.4375 -9.890625 4.28125 -9.15625 3.609375 -7.765625 L 3.578125 -7.765625 L 3.15625 -9.609375 L 0.75 -9.609375 Z M 5.9375 -2.15625 C 4.515625 -2.15625 3.515625 -3.296875 3.515625 -4.796875 C 3.515625 -6.328125 4.515625 -7.46875 5.9375 -7.46875 C 7.359375 -7.46875 8.375 -6.34375 8.375 -4.796875 C 8.375 -3.296875 7.359375 -2.15625 5.9375 -2.15625 Z M 5.9375 -2.15625 " />
            </g>
        </g>
    </g>
    <g fill="#3d3d3d" fill-opacity="1">
        <g transform="translate(112.497659, 36.941209)">
            <g>
                <path
                    d="M 4.546875 4.3125 C 7.9375 4.3125 10.171875 2.40625 10.171875 -0.65625 L 10.171875 -9.609375 L 7.296875 -9.609375 L 7.296875 -4.078125 C 7.296875 -2.8125 6.421875 -1.953125 5.296875 -1.953125 C 4.21875 -1.953125 3.578125 -2.765625 3.578125 -3.921875 L 3.578125 -9.609375 L 0.734375 -9.609375 L 0.734375 -3.421875 C 0.734375 -1.125 2.0625 0.375 4.203125 0.375 C 5.515625 0.375 6.703125 -0.359375 7.296875 -1.578125 L 7.3125 -1.578125 L 7.3125 -0.75 C 7.3125 0.90625 6.140625 1.9375 4.296875 1.9375 C 2.90625 1.9375 1.59375 1.34375 0.8125 0.46875 L -0.25 2.546875 C 0.71875 3.625 2.515625 4.3125 4.546875 4.3125 Z M 4.546875 4.3125 " />
            </g>
        </g>
    </g>
    <g fill="#3d3d3d" fill-opacity="1">
        <g transform="translate(111.171786, 44.350418)">
            <g>
                <path
                    d="M 0.171875 0 L 0.734375 0 L 0.734375 -0.875 L 1.5625 -0.875 L 1.5625 -1.296875 L 0.734375 -1.296875 L 0.734375 -1.84375 L 1.765625 -1.84375 L 1.765625 -2.3125 L 0.171875 -2.3125 Z M 0.171875 0 " />
            </g>
        </g>
    </g>
    <g fill="#3d3d3d" fill-opacity="1">
        <g transform="translate(113.865017, 44.350418)">
            <g>
                <path
                    d="M 0.015625 0 L 0.59375 0 L 0.75 -0.453125 L 1.640625 -0.453125 L 1.78125 0 L 2.375 0 L 1.53125 -2.3125 L 0.859375 -2.3125 Z M 0.84375 -0.84375 L 1.1875 -1.875 L 1.203125 -1.875 L 1.53125 -0.84375 Z M 0.84375 -0.84375 " />
            </g>
        </g>
    </g>
    <g fill="#3d3d3d" fill-opacity="1">
        <g transform="translate(117.122748, 44.350418)">
            <g>
                <path
                    d="M 1.90625 0.0625 C 2.09375 0.0625 2.265625 -0.015625 2.375 -0.125 L 2.265625 -0.390625 C 2.21875 -0.34375 2.15625 -0.296875 2.09375 -0.296875 C 2.03125 -0.296875 1.984375 -0.359375 1.96875 -0.421875 L 1.890625 -0.703125 C 1.859375 -0.828125 1.796875 -0.921875 1.671875 -0.96875 C 2.015625 -1.0625 2.21875 -1.296875 2.21875 -1.59375 C 2.21875 -2.046875 1.875 -2.3125 1.328125 -2.3125 L 0.171875 -2.3125 L 0.171875 0 L 0.734375 0 L 0.734375 -0.875 L 1.09375 -0.875 C 1.21875 -0.875 1.3125 -0.765625 1.359375 -0.640625 L 1.453125 -0.296875 C 1.515625 -0.078125 1.671875 0.0625 1.90625 0.0625 Z M 0.734375 -1.25 L 0.734375 -1.90625 L 1.25 -1.90625 C 1.5 -1.90625 1.65625 -1.78125 1.65625 -1.578125 C 1.65625 -1.375 1.5 -1.25 1.25 -1.25 Z M 0.734375 -1.25 " />
            </g>
        </g>
    </g>
    <g fill="#3d3d3d" fill-opacity="1">
        <g transform="translate(120.390213, 44.350418)">
            <g>
                <path
                    d="M 0.171875 0 L 0.6875 0 L 0.6875 -1.625 L 1.359375 0 L 1.8125 0 L 2.46875 -1.625 L 2.46875 0 L 2.984375 0 L 2.984375 -2.3125 L 2.265625 -2.3125 L 1.59375 -0.625 L 1.578125 -0.625 L 0.90625 -2.3125 L 0.171875 -2.3125 Z M 0.171875 0 " />
            </g>
        </g>
    </g>
</svg>